<mxfile host="Electron" modified="2025-06-02T18:09:07.070Z" agent="Mozilla/5.0 (Windows NT 10.0; Win64; x64) AppleWebKit/537.36 (KHTML, like Gecko) draw.io/22.1.18 Chrome/120.0.6099.199 Electron/28.1.2 Safari/537.36" etag="JUl8m1RctCgXmlkiebEf" version="22.1.18" type="device">
  <diagram id="C5RBs43oDa-KdzZeNtuy" name="Page-1">
    <mxGraphModel dx="590" dy="1096" grid="1" gridSize="10" guides="1" tooltips="1" connect="1" arrows="1" fold="1" page="1" pageScale="1" pageWidth="827" pageHeight="1169" math="0" shadow="0">
      <root>
        <mxCell id="WIyWlLk6GJQsqaUBKTNV-0" />
        <mxCell id="WIyWlLk6GJQsqaUBKTNV-1" parent="WIyWlLk6GJQsqaUBKTNV-0" />
        <mxCell id="2SzAW-Kli-cfwB6PRtNX-37" value="" style="whiteSpace=wrap;html=1;fillColor=none;rounded=1;" vertex="1" parent="WIyWlLk6GJQsqaUBKTNV-1">
          <mxGeometry x="1100" y="570" width="120" height="60" as="geometry" />
        </mxCell>
        <mxCell id="2SzAW-Kli-cfwB6PRtNX-32" value="" style="edgeStyle=none;curved=1;rounded=0;orthogonalLoop=1;jettySize=auto;html=1;fontSize=12;startSize=8;endSize=8;entryX=0;entryY=0.372;entryDx=0;entryDy=0;entryPerimeter=0;" edge="1" parent="WIyWlLk6GJQsqaUBKTNV-1" source="2SzAW-Kli-cfwB6PRtNX-0" target="2SzAW-Kli-cfwB6PRtNX-31">
          <mxGeometry relative="1" as="geometry" />
        </mxCell>
        <mxCell id="2SzAW-Kli-cfwB6PRtNX-0" value="" style="rounded=1;whiteSpace=wrap;html=1;fillColor=none;" vertex="1" parent="WIyWlLk6GJQsqaUBKTNV-1">
          <mxGeometry x="40" y="50" width="370" height="640" as="geometry" />
        </mxCell>
        <mxCell id="2SzAW-Kli-cfwB6PRtNX-2" value="setup()" style="text;html=1;strokeColor=none;fillColor=none;align=center;verticalAlign=middle;whiteSpace=wrap;rounded=0;" vertex="1" parent="WIyWlLk6GJQsqaUBKTNV-1">
          <mxGeometry x="205" y="50" width="60" height="30" as="geometry" />
        </mxCell>
        <mxCell id="2SzAW-Kli-cfwB6PRtNX-9" value="" style="edgeStyle=orthogonalEdgeStyle;rounded=0;orthogonalLoop=1;jettySize=auto;html=1;" edge="1" parent="WIyWlLk6GJQsqaUBKTNV-1" source="2SzAW-Kli-cfwB6PRtNX-3" target="2SzAW-Kli-cfwB6PRtNX-22">
          <mxGeometry relative="1" as="geometry">
            <mxPoint x="145" y="200" as="targetPoint" />
          </mxGeometry>
        </mxCell>
        <mxCell id="2SzAW-Kli-cfwB6PRtNX-3" value="pinMode&lt;br&gt;&amp;amp;&lt;br&gt;WIFI Verbindung" style="rounded=1;whiteSpace=wrap;html=1;" vertex="1" parent="WIyWlLk6GJQsqaUBKTNV-1">
          <mxGeometry x="85" y="110" width="120" height="60" as="geometry" />
        </mxCell>
        <mxCell id="2SzAW-Kli-cfwB6PRtNX-11" value="" style="edgeStyle=orthogonalEdgeStyle;rounded=0;orthogonalLoop=1;jettySize=auto;html=1;" edge="1" parent="WIyWlLk6GJQsqaUBKTNV-1" source="2SzAW-Kli-cfwB6PRtNX-22" target="2SzAW-Kli-cfwB6PRtNX-10">
          <mxGeometry relative="1" as="geometry">
            <mxPoint x="195" y="250" as="sourcePoint" />
          </mxGeometry>
        </mxCell>
        <mxCell id="2SzAW-Kli-cfwB6PRtNX-23" value="Nein" style="edgeLabel;html=1;align=center;verticalAlign=middle;resizable=0;points=[];" vertex="1" connectable="0" parent="2SzAW-Kli-cfwB6PRtNX-11">
          <mxGeometry x="-0.3061" relative="1" as="geometry">
            <mxPoint x="-12" y="-10" as="offset" />
          </mxGeometry>
        </mxCell>
        <mxCell id="2SzAW-Kli-cfwB6PRtNX-13" value="" style="edgeStyle=orthogonalEdgeStyle;rounded=0;orthogonalLoop=1;jettySize=auto;html=1;" edge="1" parent="WIyWlLk6GJQsqaUBKTNV-1" source="2SzAW-Kli-cfwB6PRtNX-22" target="2SzAW-Kli-cfwB6PRtNX-12">
          <mxGeometry relative="1" as="geometry">
            <mxPoint x="145" y="300" as="sourcePoint" />
            <Array as="points">
              <mxPoint x="145" y="310" />
              <mxPoint x="145" y="310" />
            </Array>
          </mxGeometry>
        </mxCell>
        <mxCell id="2SzAW-Kli-cfwB6PRtNX-24" value="Ja" style="edgeLabel;html=1;align=center;verticalAlign=middle;resizable=0;points=[];" vertex="1" connectable="0" parent="2SzAW-Kli-cfwB6PRtNX-13">
          <mxGeometry x="-0.2536" y="2" relative="1" as="geometry">
            <mxPoint x="13" y="-18" as="offset" />
          </mxGeometry>
        </mxCell>
        <mxCell id="2SzAW-Kli-cfwB6PRtNX-8" style="edgeStyle=orthogonalEdgeStyle;rounded=0;orthogonalLoop=1;jettySize=auto;html=1;entryX=0.5;entryY=0;entryDx=0;entryDy=0;" edge="1" parent="WIyWlLk6GJQsqaUBKTNV-1" source="2SzAW-Kli-cfwB6PRtNX-7" target="2SzAW-Kli-cfwB6PRtNX-3">
          <mxGeometry relative="1" as="geometry">
            <Array as="points">
              <mxPoint x="145" y="85" />
            </Array>
          </mxGeometry>
        </mxCell>
        <mxCell id="2SzAW-Kli-cfwB6PRtNX-7" value="" style="strokeWidth=2;html=1;shape=mxgraph.flowchart.start_2;whiteSpace=wrap;" vertex="1" parent="WIyWlLk6GJQsqaUBKTNV-1">
          <mxGeometry x="65" y="70" width="30" height="30" as="geometry" />
        </mxCell>
        <mxCell id="2SzAW-Kli-cfwB6PRtNX-10" value="Fehlercode" style="whiteSpace=wrap;html=1;strokeWidth=2;rounded=1;" vertex="1" parent="WIyWlLk6GJQsqaUBKTNV-1">
          <mxGeometry x="260" y="220" width="120" height="60" as="geometry" />
        </mxCell>
        <mxCell id="2SzAW-Kli-cfwB6PRtNX-17" value="" style="edgeStyle=orthogonalEdgeStyle;rounded=0;orthogonalLoop=1;jettySize=auto;html=1;" edge="1" parent="WIyWlLk6GJQsqaUBKTNV-1" source="2SzAW-Kli-cfwB6PRtNX-12" target="2SzAW-Kli-cfwB6PRtNX-16">
          <mxGeometry relative="1" as="geometry" />
        </mxCell>
        <mxCell id="2SzAW-Kli-cfwB6PRtNX-12" value="Verbindung zum MQTT-Broker herstellen" style="whiteSpace=wrap;html=1;strokeWidth=2;rounded=1;glass=0;shadow=0;" vertex="1" parent="WIyWlLk6GJQsqaUBKTNV-1">
          <mxGeometry x="85" y="350" width="120" height="60" as="geometry" />
        </mxCell>
        <mxCell id="2SzAW-Kli-cfwB6PRtNX-19" value="" style="edgeStyle=orthogonalEdgeStyle;rounded=0;orthogonalLoop=1;jettySize=auto;html=1;" edge="1" parent="WIyWlLk6GJQsqaUBKTNV-1" source="2SzAW-Kli-cfwB6PRtNX-16" target="2SzAW-Kli-cfwB6PRtNX-18">
          <mxGeometry relative="1" as="geometry" />
        </mxCell>
        <mxCell id="2SzAW-Kli-cfwB6PRtNX-25" value="Nein" style="edgeLabel;html=1;align=center;verticalAlign=middle;resizable=0;points=[];" vertex="1" connectable="0" parent="2SzAW-Kli-cfwB6PRtNX-19">
          <mxGeometry x="-0.3037" y="-3" relative="1" as="geometry">
            <mxPoint x="-11" y="-13" as="offset" />
          </mxGeometry>
        </mxCell>
        <mxCell id="2SzAW-Kli-cfwB6PRtNX-21" value="" style="edgeStyle=orthogonalEdgeStyle;rounded=0;orthogonalLoop=1;jettySize=auto;html=1;" edge="1" parent="WIyWlLk6GJQsqaUBKTNV-1" source="2SzAW-Kli-cfwB6PRtNX-16" target="2SzAW-Kli-cfwB6PRtNX-20">
          <mxGeometry relative="1" as="geometry" />
        </mxCell>
        <mxCell id="2SzAW-Kli-cfwB6PRtNX-26" value="Ja" style="edgeLabel;html=1;align=center;verticalAlign=middle;resizable=0;points=[];" vertex="1" connectable="0" parent="2SzAW-Kli-cfwB6PRtNX-21">
          <mxGeometry x="-0.48" relative="1" as="geometry">
            <mxPoint x="15" y="-13" as="offset" />
          </mxGeometry>
        </mxCell>
        <mxCell id="2SzAW-Kli-cfwB6PRtNX-16" value="Mit Broker verbunden?" style="rhombus;whiteSpace=wrap;html=1;strokeWidth=2;rounded=1;glass=0;shadow=0;" vertex="1" parent="WIyWlLk6GJQsqaUBKTNV-1">
          <mxGeometry x="97.5" y="450" width="95" height="100" as="geometry" />
        </mxCell>
        <mxCell id="2SzAW-Kli-cfwB6PRtNX-18" value="Fehlercode" style="whiteSpace=wrap;html=1;strokeWidth=2;rounded=1;glass=0;shadow=0;" vertex="1" parent="WIyWlLk6GJQsqaUBKTNV-1">
          <mxGeometry x="260" y="470" width="120" height="60" as="geometry" />
        </mxCell>
        <mxCell id="2SzAW-Kli-cfwB6PRtNX-30" value="" style="edgeStyle=none;curved=1;rounded=0;orthogonalLoop=1;jettySize=auto;html=1;fontSize=12;startSize=8;endSize=8;" edge="1" parent="WIyWlLk6GJQsqaUBKTNV-1" source="2SzAW-Kli-cfwB6PRtNX-20" target="2SzAW-Kli-cfwB6PRtNX-29">
          <mxGeometry relative="1" as="geometry" />
        </mxCell>
        <mxCell id="2SzAW-Kli-cfwB6PRtNX-20" value="Abonniere Topics&lt;br&gt;&amp;amp;&lt;br&gt;Einrichtung Bildschirm" style="whiteSpace=wrap;html=1;strokeWidth=2;rounded=1;glass=0;shadow=0;" vertex="1" parent="WIyWlLk6GJQsqaUBKTNV-1">
          <mxGeometry x="85" y="600" width="120" height="60" as="geometry" />
        </mxCell>
        <mxCell id="2SzAW-Kli-cfwB6PRtNX-22" value="Mit WIFI verbunden?" style="rhombus;whiteSpace=wrap;html=1;strokeWidth=2;rounded=1;glass=0;shadow=0;" vertex="1" parent="WIyWlLk6GJQsqaUBKTNV-1">
          <mxGeometry x="96.5" y="200" width="95" height="100" as="geometry" />
        </mxCell>
        <mxCell id="2SzAW-Kli-cfwB6PRtNX-29" value="" style="ellipse;whiteSpace=wrap;html=1;strokeWidth=2;rounded=1;glass=0;shadow=0;" vertex="1" parent="WIyWlLk6GJQsqaUBKTNV-1">
          <mxGeometry x="301.25" y="612.5" width="37.5" height="35" as="geometry" />
        </mxCell>
        <mxCell id="2SzAW-Kli-cfwB6PRtNX-88" style="edgeStyle=none;curved=0;rounded=0;orthogonalLoop=1;jettySize=auto;html=1;entryX=0;entryY=0.5;entryDx=0;entryDy=0;fontSize=12;startSize=8;endSize=8;exitX=1.009;exitY=0.104;exitDx=0;exitDy=0;exitPerimeter=0;" edge="1" parent="WIyWlLk6GJQsqaUBKTNV-1" source="2SzAW-Kli-cfwB6PRtNX-31" target="2SzAW-Kli-cfwB6PRtNX-43">
          <mxGeometry relative="1" as="geometry">
            <Array as="points">
              <mxPoint x="1030" y="110" />
            </Array>
          </mxGeometry>
        </mxCell>
        <mxCell id="2SzAW-Kli-cfwB6PRtNX-31" value="" style="whiteSpace=wrap;html=1;fillColor=none;rounded=1;" vertex="1" parent="WIyWlLk6GJQsqaUBKTNV-1">
          <mxGeometry x="530" y="50" width="430" height="860" as="geometry" />
        </mxCell>
        <mxCell id="2SzAW-Kli-cfwB6PRtNX-76" style="edgeStyle=none;curved=1;rounded=0;orthogonalLoop=1;jettySize=auto;html=1;entryX=0.5;entryY=0;entryDx=0;entryDy=0;fontSize=12;startSize=8;endSize=8;" edge="1" parent="WIyWlLk6GJQsqaUBKTNV-1" source="2SzAW-Kli-cfwB6PRtNX-33" target="2SzAW-Kli-cfwB6PRtNX-42">
          <mxGeometry relative="1" as="geometry" />
        </mxCell>
        <mxCell id="2SzAW-Kli-cfwB6PRtNX-33" value="" style="whiteSpace=wrap;html=1;fillColor=none;rounded=1;" vertex="1" parent="WIyWlLk6GJQsqaUBKTNV-1">
          <mxGeometry x="1100" y="250" width="120" height="60" as="geometry" />
        </mxCell>
        <mxCell id="2SzAW-Kli-cfwB6PRtNX-35" value="&lt;font style=&quot;font-size: 11px;&quot;&gt;onMqttMessage()&lt;/font&gt;" style="text;html=1;strokeColor=none;fillColor=none;align=center;verticalAlign=middle;whiteSpace=wrap;rounded=0;fontSize=16;" vertex="1" parent="WIyWlLk6GJQsqaUBKTNV-1">
          <mxGeometry x="675" y="50" width="60" height="30" as="geometry" />
        </mxCell>
        <mxCell id="2SzAW-Kli-cfwB6PRtNX-36" value="&lt;font style=&quot;font-size: 11px;&quot;&gt;publishSlots()&lt;/font&gt;" style="text;html=1;strokeColor=none;fillColor=none;align=center;verticalAlign=middle;whiteSpace=wrap;rounded=0;fontSize=16;" vertex="1" parent="WIyWlLk6GJQsqaUBKTNV-1">
          <mxGeometry x="1130" y="570" width="60" height="30" as="geometry" />
        </mxCell>
        <mxCell id="2SzAW-Kli-cfwB6PRtNX-39" value="&lt;font style=&quot;font-size: 11px;&quot;&gt;updateLCD()&lt;/font&gt;" style="text;html=1;strokeColor=none;fillColor=none;align=center;verticalAlign=middle;whiteSpace=wrap;rounded=0;fontSize=16;" vertex="1" parent="WIyWlLk6GJQsqaUBKTNV-1">
          <mxGeometry x="1130" y="250" width="60" height="30" as="geometry" />
        </mxCell>
        <mxCell id="2SzAW-Kli-cfwB6PRtNX-89" value="" style="edgeStyle=none;curved=1;rounded=0;orthogonalLoop=1;jettySize=auto;html=1;fontSize=12;startSize=8;endSize=8;" edge="1" parent="WIyWlLk6GJQsqaUBKTNV-1" source="2SzAW-Kli-cfwB6PRtNX-40" target="2SzAW-Kli-cfwB6PRtNX-36">
          <mxGeometry relative="1" as="geometry" />
        </mxCell>
        <mxCell id="2SzAW-Kli-cfwB6PRtNX-40" value="" style="whiteSpace=wrap;html=1;fillColor=none;rounded=1;" vertex="1" parent="WIyWlLk6GJQsqaUBKTNV-1">
          <mxGeometry x="1100" y="410" width="120" height="60" as="geometry" />
        </mxCell>
        <mxCell id="2SzAW-Kli-cfwB6PRtNX-42" value="&lt;font style=&quot;font-size: 11px;&quot;&gt;updateLEDs()&lt;/font&gt;" style="text;html=1;strokeColor=none;fillColor=none;align=center;verticalAlign=middle;whiteSpace=wrap;rounded=0;fontSize=16;" vertex="1" parent="WIyWlLk6GJQsqaUBKTNV-1">
          <mxGeometry x="1130" y="410" width="60" height="30" as="geometry" />
        </mxCell>
        <mxCell id="2SzAW-Kli-cfwB6PRtNX-87" value="" style="edgeStyle=none;curved=1;rounded=0;orthogonalLoop=1;jettySize=auto;html=1;fontSize=12;startSize=8;endSize=8;" edge="1" parent="WIyWlLk6GJQsqaUBKTNV-1" source="2SzAW-Kli-cfwB6PRtNX-43" target="2SzAW-Kli-cfwB6PRtNX-39">
          <mxGeometry relative="1" as="geometry" />
        </mxCell>
        <mxCell id="2SzAW-Kli-cfwB6PRtNX-43" value="" style="whiteSpace=wrap;html=1;fillColor=none;rounded=1;" vertex="1" parent="WIyWlLk6GJQsqaUBKTNV-1">
          <mxGeometry x="1100" y="80" width="120" height="60" as="geometry" />
        </mxCell>
        <mxCell id="2SzAW-Kli-cfwB6PRtNX-45" value="&lt;font style=&quot;font-size: 11px;&quot;&gt;showMessage()&lt;/font&gt;" style="text;html=1;strokeColor=none;fillColor=none;align=center;verticalAlign=middle;whiteSpace=wrap;rounded=0;fontSize=16;" vertex="1" parent="WIyWlLk6GJQsqaUBKTNV-1">
          <mxGeometry x="1130" y="80" width="60" height="30" as="geometry" />
        </mxCell>
        <mxCell id="2SzAW-Kli-cfwB6PRtNX-53" value="" style="edgeStyle=none;curved=1;rounded=0;orthogonalLoop=1;jettySize=auto;html=1;fontSize=12;startSize=8;endSize=8;" edge="1" parent="WIyWlLk6GJQsqaUBKTNV-1" source="2SzAW-Kli-cfwB6PRtNX-47" target="2SzAW-Kli-cfwB6PRtNX-52">
          <mxGeometry relative="1" as="geometry" />
        </mxCell>
        <mxCell id="2SzAW-Kli-cfwB6PRtNX-47" value="MQTT Nachricht empfangen" style="whiteSpace=wrap;html=1;strokeWidth=2;rounded=1;glass=0;shadow=0;" vertex="1" parent="WIyWlLk6GJQsqaUBKTNV-1">
          <mxGeometry x="580" y="110" width="120" height="60" as="geometry" />
        </mxCell>
        <mxCell id="2SzAW-Kli-cfwB6PRtNX-51" style="edgeStyle=none;curved=0;rounded=0;orthogonalLoop=1;jettySize=auto;html=1;entryX=0.5;entryY=0;entryDx=0;entryDy=0;fontSize=12;startSize=8;endSize=8;" edge="1" parent="WIyWlLk6GJQsqaUBKTNV-1" source="2SzAW-Kli-cfwB6PRtNX-50" target="2SzAW-Kli-cfwB6PRtNX-47">
          <mxGeometry relative="1" as="geometry">
            <Array as="points">
              <mxPoint x="640" y="85" />
            </Array>
          </mxGeometry>
        </mxCell>
        <mxCell id="2SzAW-Kli-cfwB6PRtNX-50" value="" style="ellipse;whiteSpace=wrap;html=1;strokeWidth=2;rounded=1;glass=0;shadow=0;" vertex="1" parent="WIyWlLk6GJQsqaUBKTNV-1">
          <mxGeometry x="550" y="70" width="30" height="30" as="geometry" />
        </mxCell>
        <mxCell id="2SzAW-Kli-cfwB6PRtNX-55" value="" style="edgeStyle=none;curved=1;rounded=0;orthogonalLoop=1;jettySize=auto;html=1;fontSize=12;startSize=8;endSize=8;" edge="1" parent="WIyWlLk6GJQsqaUBKTNV-1" source="2SzAW-Kli-cfwB6PRtNX-52" target="2SzAW-Kli-cfwB6PRtNX-54">
          <mxGeometry relative="1" as="geometry" />
        </mxCell>
        <mxCell id="2SzAW-Kli-cfwB6PRtNX-58" value="&lt;font style=&quot;font-size: 11px;&quot;&gt;Ja&lt;/font&gt;" style="edgeLabel;html=1;align=center;verticalAlign=middle;resizable=0;points=[];fontSize=16;" vertex="1" connectable="0" parent="2SzAW-Kli-cfwB6PRtNX-55">
          <mxGeometry x="-0.419" y="-1" relative="1" as="geometry">
            <mxPoint x="-14" y="-16" as="offset" />
          </mxGeometry>
        </mxCell>
        <mxCell id="2SzAW-Kli-cfwB6PRtNX-61" value="" style="edgeStyle=none;curved=1;rounded=0;orthogonalLoop=1;jettySize=auto;html=1;fontSize=12;startSize=8;endSize=8;" edge="1" parent="WIyWlLk6GJQsqaUBKTNV-1" source="2SzAW-Kli-cfwB6PRtNX-52" target="2SzAW-Kli-cfwB6PRtNX-60">
          <mxGeometry relative="1" as="geometry" />
        </mxCell>
        <mxCell id="2SzAW-Kli-cfwB6PRtNX-69" value="&lt;font style=&quot;font-size: 11px;&quot;&gt;Nein&lt;/font&gt;" style="edgeLabel;html=1;align=center;verticalAlign=middle;resizable=0;points=[];fontSize=16;" vertex="1" connectable="0" parent="2SzAW-Kli-cfwB6PRtNX-61">
          <mxGeometry x="-0.1561" y="-1" relative="1" as="geometry">
            <mxPoint x="21" y="-17" as="offset" />
          </mxGeometry>
        </mxCell>
        <mxCell id="2SzAW-Kli-cfwB6PRtNX-52" value="Löschungs-befehl?" style="rhombus;whiteSpace=wrap;html=1;strokeWidth=2;rounded=1;glass=0;shadow=0;" vertex="1" parent="WIyWlLk6GJQsqaUBKTNV-1">
          <mxGeometry x="595" y="210" width="90" height="90" as="geometry" />
        </mxCell>
        <mxCell id="2SzAW-Kli-cfwB6PRtNX-74" style="edgeStyle=none;curved=0;rounded=0;orthogonalLoop=1;jettySize=auto;html=1;entryX=0.5;entryY=0;entryDx=0;entryDy=0;fontSize=12;startSize=8;endSize=8;" edge="1" parent="WIyWlLk6GJQsqaUBKTNV-1" source="2SzAW-Kli-cfwB6PRtNX-54" target="2SzAW-Kli-cfwB6PRtNX-71">
          <mxGeometry relative="1" as="geometry">
            <Array as="points">
              <mxPoint x="905" y="255" />
            </Array>
          </mxGeometry>
        </mxCell>
        <mxCell id="2SzAW-Kli-cfwB6PRtNX-54" value="Slot X löschen&amp;nbsp;" style="whiteSpace=wrap;html=1;strokeWidth=2;rounded=1;glass=0;shadow=0;" vertex="1" parent="WIyWlLk6GJQsqaUBKTNV-1">
          <mxGeometry x="735" y="225" width="120" height="60" as="geometry" />
        </mxCell>
        <mxCell id="2SzAW-Kli-cfwB6PRtNX-63" value="" style="edgeStyle=none;curved=1;rounded=0;orthogonalLoop=1;jettySize=auto;html=1;fontSize=12;startSize=8;endSize=8;" edge="1" parent="WIyWlLk6GJQsqaUBKTNV-1" source="2SzAW-Kli-cfwB6PRtNX-60" target="2SzAW-Kli-cfwB6PRtNX-62">
          <mxGeometry relative="1" as="geometry" />
        </mxCell>
        <mxCell id="2SzAW-Kli-cfwB6PRtNX-60" value="Auf Duplikate prüfen" style="whiteSpace=wrap;html=1;strokeWidth=2;rounded=1;glass=0;shadow=0;" vertex="1" parent="WIyWlLk6GJQsqaUBKTNV-1">
          <mxGeometry x="580" y="340" width="120" height="60" as="geometry" />
        </mxCell>
        <mxCell id="2SzAW-Kli-cfwB6PRtNX-65" value="" style="edgeStyle=none;curved=1;rounded=0;orthogonalLoop=1;jettySize=auto;html=1;fontSize=12;startSize=8;endSize=8;" edge="1" parent="WIyWlLk6GJQsqaUBKTNV-1" source="2SzAW-Kli-cfwB6PRtNX-62" target="2SzAW-Kli-cfwB6PRtNX-64">
          <mxGeometry relative="1" as="geometry" />
        </mxCell>
        <mxCell id="2SzAW-Kli-cfwB6PRtNX-66" value="&lt;font style=&quot;font-size: 11px;&quot;&gt;Ja&lt;/font&gt;" style="edgeLabel;html=1;align=center;verticalAlign=middle;resizable=0;points=[];fontSize=16;" vertex="1" connectable="0" parent="2SzAW-Kli-cfwB6PRtNX-65">
          <mxGeometry x="-0.4" y="1" relative="1" as="geometry">
            <mxPoint x="-10" y="-14" as="offset" />
          </mxGeometry>
        </mxCell>
        <mxCell id="2SzAW-Kli-cfwB6PRtNX-68" value="" style="edgeStyle=none;curved=1;rounded=0;orthogonalLoop=1;jettySize=auto;html=1;fontSize=12;startSize=8;endSize=8;" edge="1" parent="WIyWlLk6GJQsqaUBKTNV-1" source="2SzAW-Kli-cfwB6PRtNX-62" target="2SzAW-Kli-cfwB6PRtNX-67">
          <mxGeometry relative="1" as="geometry" />
        </mxCell>
        <mxCell id="2SzAW-Kli-cfwB6PRtNX-70" value="&lt;font style=&quot;font-size: 11px;&quot;&gt;Nein&lt;/font&gt;" style="edgeLabel;html=1;align=center;verticalAlign=middle;resizable=0;points=[];fontSize=16;" vertex="1" connectable="0" parent="2SzAW-Kli-cfwB6PRtNX-68">
          <mxGeometry x="-0.339" relative="1" as="geometry">
            <mxPoint x="20" y="-13" as="offset" />
          </mxGeometry>
        </mxCell>
        <mxCell id="2SzAW-Kli-cfwB6PRtNX-62" value="Duplikat?" style="rhombus;whiteSpace=wrap;html=1;strokeWidth=2;rounded=1;glass=0;shadow=0;" vertex="1" parent="WIyWlLk6GJQsqaUBKTNV-1">
          <mxGeometry x="595" y="440" width="90" height="90" as="geometry" />
        </mxCell>
        <mxCell id="2SzAW-Kli-cfwB6PRtNX-73" style="edgeStyle=none;curved=0;rounded=0;orthogonalLoop=1;jettySize=auto;html=1;entryX=0.5;entryY=0;entryDx=0;entryDy=0;fontSize=12;startSize=8;endSize=8;" edge="1" parent="WIyWlLk6GJQsqaUBKTNV-1" source="2SzAW-Kli-cfwB6PRtNX-64" target="2SzAW-Kli-cfwB6PRtNX-71">
          <mxGeometry relative="1" as="geometry">
            <Array as="points">
              <mxPoint x="905" y="485" />
            </Array>
          </mxGeometry>
        </mxCell>
        <mxCell id="2SzAW-Kli-cfwB6PRtNX-64" value="Bereits vorhanden" style="whiteSpace=wrap;html=1;strokeWidth=2;rounded=1;glass=0;shadow=0;" vertex="1" parent="WIyWlLk6GJQsqaUBKTNV-1">
          <mxGeometry x="735" y="455" width="120" height="60" as="geometry" />
        </mxCell>
        <mxCell id="2SzAW-Kli-cfwB6PRtNX-78" value="" style="edgeStyle=none;curved=1;rounded=0;orthogonalLoop=1;jettySize=auto;html=1;fontSize=12;startSize=8;endSize=8;" edge="1" parent="WIyWlLk6GJQsqaUBKTNV-1" source="2SzAW-Kli-cfwB6PRtNX-67" target="2SzAW-Kli-cfwB6PRtNX-77">
          <mxGeometry relative="1" as="geometry" />
        </mxCell>
        <mxCell id="2SzAW-Kli-cfwB6PRtNX-67" value="Qr-Code zu freien Slot hinzufügen" style="whiteSpace=wrap;html=1;strokeWidth=2;rounded=1;glass=0;shadow=0;" vertex="1" parent="WIyWlLk6GJQsqaUBKTNV-1">
          <mxGeometry x="580" y="570" width="120" height="60" as="geometry" />
        </mxCell>
        <mxCell id="2SzAW-Kli-cfwB6PRtNX-71" value="" style="ellipse;whiteSpace=wrap;html=1;strokeWidth=2;rounded=1;glass=0;shadow=0;" vertex="1" parent="WIyWlLk6GJQsqaUBKTNV-1">
          <mxGeometry x="890" y="585" width="30" height="30" as="geometry" />
        </mxCell>
        <mxCell id="2SzAW-Kli-cfwB6PRtNX-80" value="" style="edgeStyle=none;curved=1;rounded=0;orthogonalLoop=1;jettySize=auto;html=1;fontSize=12;startSize=8;endSize=8;" edge="1" parent="WIyWlLk6GJQsqaUBKTNV-1" source="2SzAW-Kli-cfwB6PRtNX-77" target="2SzAW-Kli-cfwB6PRtNX-79">
          <mxGeometry relative="1" as="geometry" />
        </mxCell>
        <mxCell id="2SzAW-Kli-cfwB6PRtNX-81" value="&lt;font style=&quot;font-size: 11px;&quot;&gt;Ja&lt;/font&gt;" style="edgeLabel;html=1;align=center;verticalAlign=middle;resizable=0;points=[];fontSize=16;" vertex="1" connectable="0" parent="2SzAW-Kli-cfwB6PRtNX-80">
          <mxGeometry x="-0.4678" relative="1" as="geometry">
            <mxPoint x="-10" y="-20" as="offset" />
          </mxGeometry>
        </mxCell>
        <mxCell id="2SzAW-Kli-cfwB6PRtNX-83" value="" style="edgeStyle=none;curved=1;rounded=0;orthogonalLoop=1;jettySize=auto;html=1;fontSize=12;startSize=8;endSize=8;" edge="1" parent="WIyWlLk6GJQsqaUBKTNV-1" source="2SzAW-Kli-cfwB6PRtNX-77" target="2SzAW-Kli-cfwB6PRtNX-82">
          <mxGeometry relative="1" as="geometry" />
        </mxCell>
        <mxCell id="2SzAW-Kli-cfwB6PRtNX-84" value="&lt;font style=&quot;font-size: 11px;&quot;&gt;Nein&lt;/font&gt;" style="edgeLabel;html=1;align=center;verticalAlign=middle;resizable=0;points=[];fontSize=16;" vertex="1" connectable="0" parent="2SzAW-Kli-cfwB6PRtNX-83">
          <mxGeometry x="-0.7222" relative="1" as="geometry">
            <mxPoint x="20" y="-9" as="offset" />
          </mxGeometry>
        </mxCell>
        <mxCell id="2SzAW-Kli-cfwB6PRtNX-77" value="Alle Slots voll?" style="rhombus;whiteSpace=wrap;html=1;strokeWidth=2;rounded=1;glass=0;shadow=0;" vertex="1" parent="WIyWlLk6GJQsqaUBKTNV-1">
          <mxGeometry x="600" y="690" width="80" height="80" as="geometry" />
        </mxCell>
        <mxCell id="2SzAW-Kli-cfwB6PRtNX-86" style="edgeStyle=none;curved=0;rounded=0;orthogonalLoop=1;jettySize=auto;html=1;entryX=0.5;entryY=1;entryDx=0;entryDy=0;fontSize=12;startSize=8;endSize=8;" edge="1" parent="WIyWlLk6GJQsqaUBKTNV-1" source="2SzAW-Kli-cfwB6PRtNX-79" target="2SzAW-Kli-cfwB6PRtNX-71">
          <mxGeometry relative="1" as="geometry">
            <Array as="points">
              <mxPoint x="905" y="730" />
            </Array>
          </mxGeometry>
        </mxCell>
        <mxCell id="2SzAW-Kli-cfwB6PRtNX-79" value="Alle Slots voll.&lt;br&gt;Zeige Nachricht&lt;br&gt;&quot;Alle Slots sind voll&quot;" style="whiteSpace=wrap;html=1;strokeWidth=2;rounded=1;glass=0;shadow=0;" vertex="1" parent="WIyWlLk6GJQsqaUBKTNV-1">
          <mxGeometry x="735" y="700" width="120" height="60" as="geometry" />
        </mxCell>
        <mxCell id="2SzAW-Kli-cfwB6PRtNX-85" style="edgeStyle=none;curved=0;rounded=0;orthogonalLoop=1;jettySize=auto;html=1;entryX=0.5;entryY=1;entryDx=0;entryDy=0;fontSize=12;startSize=8;endSize=8;" edge="1" parent="WIyWlLk6GJQsqaUBKTNV-1" source="2SzAW-Kli-cfwB6PRtNX-82" target="2SzAW-Kli-cfwB6PRtNX-71">
          <mxGeometry relative="1" as="geometry">
            <Array as="points">
              <mxPoint x="905" y="860" />
            </Array>
          </mxGeometry>
        </mxCell>
        <mxCell id="2SzAW-Kli-cfwB6PRtNX-82" value="Qr-Code zu freien Slot hinzufügen.&lt;br&gt;Final" style="whiteSpace=wrap;html=1;strokeWidth=2;rounded=1;glass=0;shadow=0;" vertex="1" parent="WIyWlLk6GJQsqaUBKTNV-1">
          <mxGeometry x="580" y="830" width="120" height="60" as="geometry" />
        </mxCell>
        <mxCell id="2SzAW-Kli-cfwB6PRtNX-90" style="edgeStyle=none;curved=0;rounded=0;orthogonalLoop=1;jettySize=auto;html=1;entryX=1.008;entryY=0.847;entryDx=0;entryDy=0;entryPerimeter=0;fontSize=12;startSize=8;endSize=8;" edge="1" parent="WIyWlLk6GJQsqaUBKTNV-1" source="2SzAW-Kli-cfwB6PRtNX-37" target="2SzAW-Kli-cfwB6PRtNX-31">
          <mxGeometry relative="1" as="geometry">
            <Array as="points">
              <mxPoint x="1160" y="778" />
            </Array>
          </mxGeometry>
        </mxCell>
      </root>
    </mxGraphModel>
  </diagram>
</mxfile>
